<svg width="512" height="512" viewBox="0 0 512 512" style="color:#1C2033" xmlns="http://www.w3.org/2000/svg" class="h-full w-full"><rect width="512" height="512" x="0" y="0" rx="30" fill="transparent" stroke="transparent" stroke-width="0" stroke-opacity="100%" paint-order="stroke"></rect><svg width="199px" height="199px" viewBox="0 0 32 32" fill="#1C2033" x="156.5" y="156.5" role="img" style="display:inline-block;vertical-align:middle" xmlns="http://www.w3.org/2000/svg"><g fill="#1C2033"><path fill="currentColor" d="M16 4c6.6 0 12 5.4 12 12s-5.4 12-12 12S4 22.6 4 16S9.4 4 16 4m0-2C8.3 2 2 8.3 2 16s6.3 14 14 14s14-6.3 14-14S23.7 2 16 2z"/><path fill="currentColor" d="M24 15h-7V8h-2v7H8v2h7v7h2v-7h7z"/></g></svg></svg>