<svg width="512" height="512" viewBox="0 0 512 512" style="color:#1C2033" xmlns="http://www.w3.org/2000/svg" class="h-full w-full"><rect width="512" height="512" x="0" y="0" rx="30" fill="transparent" stroke="transparent" stroke-width="0" stroke-opacity="100%" paint-order="stroke"></rect><svg width="199px" height="199px" viewBox="0 0 16 16" fill="#1C2033" x="156.5" y="156.5" role="img" style="display:inline-block;vertical-align:middle" xmlns="http://www.w3.org/2000/svg"><g fill="#1C2033"><g fill="currentColor"><path d="M10 .5a.5.5 0 0 0-.5-.5h-3a.5.5 0 0 0-.5.5a.5.5 0 0 1-.5.5a.5.5 0 0 0-.5.5V2a.5.5 0 0 0 .5.5h5A.5.5 0 0 0 11 2v-.5a.5.5 0 0 0-.5-.5a.5.5 0 0 1-.5-.5Z"/><path d="M4.085 1H3.5A1.5 1.5 0 0 0 2 2.5v12A1.5 1.5 0 0 0 3.5 16h9a1.5 1.5 0 0 0 1.5-1.5v-12A1.5 1.5 0 0 0 12.5 1h-.585c.055.156.085.325.085.5V2a1.5 1.5 0 0 1-1.5 1.5h-5A1.5 1.5 0 0 1 4 2v-.5c0-.175.03-.344.085-.5ZM10 7a1 1 0 1 1 2 0v5a1 1 0 1 1-2 0V7Zm-6 4a1 1 0 1 1 2 0v1a1 1 0 1 1-2 0v-1Zm4-3a1 1 0 0 1 1 1v3a1 1 0 1 1-2 0V9a1 1 0 0 1 1-1Z"/></g></g></svg></svg>