<svg width="512" height="512" viewBox="0 0 512 512" style="color:#1C2033" xmlns="http://www.w3.org/2000/svg" class="h-full w-full"><rect width="512" height="512" x="0" y="0" rx="30" fill="transparent" stroke="transparent" stroke-width="0" stroke-opacity="100%" paint-order="stroke"></rect><svg width="199px" height="199px" viewBox="0 0 16 16" fill="#1C2033" x="156.5" y="156.5" role="img" style="display:inline-block;vertical-align:middle" xmlns="http://www.w3.org/2000/svg"><g fill="#1C2033"><g fill="currentColor"><path d="M4 11a1 1 0 1 1 2 0v1a1 1 0 1 1-2 0v-1zm6-4a1 1 0 1 1 2 0v5a1 1 0 1 1-2 0V7zM7 9a1 1 0 0 1 2 0v3a1 1 0 1 1-2 0V9z"/><path d="M4 1.5H3a2 2 0 0 0-2 2V14a2 2 0 0 0 2 2h10a2 2 0 0 0 2-2V3.5a2 2 0 0 0-2-2h-1v1h1a1 1 0 0 1 1 1V14a1 1 0 0 1-1 1H3a1 1 0 0 1-1-1V3.5a1 1 0 0 1 1-1h1v-1z"/><path d="M9.5 1a.5.5 0 0 1 .5.5v1a.5.5 0 0 1-.5.5h-3a.5.5 0 0 1-.5-.5v-1a.5.5 0 0 1 .5-.5h3zm-3-1A1.5 1.5 0 0 0 5 1.5v1A1.5 1.5 0 0 0 6.5 4h3A1.5 1.5 0 0 0 11 2.5v-1A1.5 1.5 0 0 0 9.5 0h-3z"/></g></g></svg></svg>