<svg width="512" height="512" viewBox="0 0 512 512" style="color:#1C2033" xmlns="http://www.w3.org/2000/svg" class="h-full w-full"><rect width="512" height="512" x="0" y="0" rx="30" fill="transparent" stroke="transparent" stroke-width="0" stroke-opacity="100%" paint-order="stroke"></rect><svg width="199px" height="199px" viewBox="0 0 16 16" fill="#1C2033" x="156.5" y="156.5" role="img" style="display:inline-block;vertical-align:middle" xmlns="http://www.w3.org/2000/svg"><g fill="#1C2033"><path fill="currentColor" d="M0 4a2 2 0 0 1 2-2h12a2 2 0 0 1 2 2v8a2 2 0 0 1-2 2H2a2 2 0 0 1-2-2V4zm2.5 1a.5.5 0 0 0-.5.5v1a.5.5 0 0 0 .5.5h2a.5.5 0 0 0 .5-.5v-1a.5.5 0 0 0-.5-.5h-2zm0 3a.5.5 0 0 0 0 1h5a.5.5 0 0 0 0-1h-5zm0 2a.5.5 0 0 0 0 1h1a.5.5 0 0 0 0-1h-1zm3 0a.5.5 0 0 0 0 1h1a.5.5 0 0 0 0-1h-1zm3 0a.5.5 0 0 0 0 1h1a.5.5 0 0 0 0-1h-1zm3 0a.5.5 0 0 0 0 1h1a.5.5 0 0 0 0-1h-1z"/></g></svg></svg>